<svg width="512" height="512" xmlns:xlink="http://www.w3.org/1999/xlink" xmlns="http://www.w3.org/2000/svg"><defs><linearGradient id="c"><stop style="stop-color:#8a88fb;stop-opacity:1" offset="0"/><stop style="stop-color:#d079ee;stop-opacity:1" offset="1"/></linearGradient><linearGradient id="b"><stop style="stop-color:#fcec88;stop-opacity:1" offset="0"/><stop style="stop-color:#e9552a;stop-opacity:1" offset="1"/></linearGradient><linearGradient id="a"><stop style="stop-color:#fcec88;stop-opacity:1" offset="0"/><stop style="stop-color:#e9552a;stop-opacity:1" offset="1"/></linearGradient><linearGradient xlink:href="#a" id="g" gradientUnits="userSpaceOnUse" x1="377.995" y1="118.774" x2="248.102" y2="221.404" gradientTransform="matrix(1.5774 0 0 1.5774 -95.785 -123.116)"/><linearGradient xlink:href="#b" id="f" gradientUnits="userSpaceOnUse" gradientTransform="matrix(1.5774 0 0 1.5774 -95.785 -123.116)" x1="272.484" y1="150.155" x2="406.511" y2="259.004"/><linearGradient xlink:href="#c" id="d" x1="-361.848" y1="101.956" x2="539.992" y2="629.288" gradientUnits="userSpaceOnUse" gradientTransform="matrix(1.26835 0 0 1.26835 -14.535 -14.535)"/><filter style="color-interpolation-filters:sRGB" id="e" x="-.034" y="-.03" width="1.083" height="1.071"><feFlood result="flood" flood-opacity=".498" flood-color="#454545"/><feGaussianBlur result="blur" in="SourceGraphic" stdDeviation="4.1"/><feOffset result="offset" in="blur" dx="4.2" dy="3.635"/><feComposite result="comp1" operator="in" in="flood" in2="offset"/><feComposite result="comp2" in="SourceGraphic" in2="comp1"/></filter></defs><rect style="fill:url(#d);fill-opacity:1;stroke-width:1.26835" width="512" height="512" x="54.163" y="54.163" ry="72.927" transform="translate(-54.163 -54.163)"/><g style="filter:url(#e)" transform="translate(-54.163 -54.163)"><path style="font-size:360px;font-family:onest;-inkscape-font-specification:onest;display:inline;fill:#fff;fill-opacity:1;stroke-width:1.57742" d="M328.615 168.326c-53.882.035-95.11 46.198-162.498.978v304.648h79.502V326.304c0-15.522 2.46-29.718 7.382-42.59 4.921-12.872 12.493-23.092 22.715-30.664 10.222-7.572 22.903-11.356 38.046-11.356 11.736 0 21.2 2.269 28.393 6.812 7.193 4.543 12.685 10.602 16.47 18.174 4.165 7.571 7.002 15.9 8.516 24.986a165.523 165.523 0 0 1 2.274 27.256v155.03h79.499V308.7c0-24.735-3.357-47.172-9.998-67.363a58.269 58.269 0 0 1-29.736 8.287c-32.181 0-58.269-26.088-58.269-58.269a58.27 58.27 0 0 1 3.86-20.435c-9.258-1.798-17.936-2.6-26.156-2.594z"/><circle style="display:inline;fill:url(#f);fill-opacity:1;stroke-width:1.424" cy="191.394" cx="409.191" r="45.019"/><path style="display:inline;fill:url(#g);fill-opacity:1;stroke-width:1.424" d="M409.192 146.375a45.019 45.019 0 0 0-41.194 26.973c28.355 4.402 51.8 18.958 66.386 55.28a45.019 45.019 0 0 0 19.826-37.236 45.019 45.019 0 0 0-45.018-45.017z"/></g></svg>